<?xml version="1.0" encoding="UTF-8" standalone="no"?>
<!-- Created with Inkscape (http://www.inkscape.org/) -->

<svg
   xmlns:dc="http://purl.org/dc/elements/1.1/"
   xmlns:cc="http://creativecommons.org/ns#"
   xmlns:rdf="http://www.w3.org/1999/02/22-rdf-syntax-ns#"
   xmlns:svg="http://www.w3.org/2000/svg"
   xmlns="http://www.w3.org/2000/svg"
   version="1.0"
   width="320"
   height="500"
   id="svg2949">
  <defs
     id="defs2951" />
  <metadata
     id="metadata2954">
    <rdf:RDF>
      <cc:Work
         rdf:about="">
        <dc:format>image/svg+xml</dc:format>
        <dc:type
           rdf:resource="http://purl.org/dc/dcmitype/StillImage" />
        <dc:title></dc:title>
      </cc:Work>
    </rdf:RDF>
  </metadata>
  <g
     transform="translate(-309.93544,-43.238078)"
     id="layer1">
    <g
       transform="matrix(4.8901691,0,0,5.0053324,-1202.4189,-2178.5322)"
       id="g2978">
      <path
         d="m 373.70253,493.79513 c 0,27.05878 -14.21658,48.80385 -31.55836,48.80385 -17.34878,0 -31.56711,-21.74507 -31.56711,-48.80385 0,-27.06753 14.21833,-48.8126 31.56711,-48.8126 17.34178,0 31.55836,21.74507 31.55836,48.8126"
         id="path320"
         style="fill:#ffffff;fill-rule:nonzero;stroke:none" />
      <path
         d="m 337.6796,498.12839 9.32307,0 0,2.29356 -9.32307,0 0,-2.29356 z"
         id="path322"
         style="fill:#e21a22;fill-rule:evenodd;stroke:none" />
      <path
         d="m 338.81763,501.32362 7.05577,0 0,2.55618 -7.05577,0 0,-2.55618 z"
         id="path324"
         style="fill:#e21a22;fill-rule:evenodd;stroke:none" />
      <path
         d="m 328.48872,487.44844 27.71446,0 0,1.14678 -27.71446,0 0,-1.14678 z"
         id="path326"
         style="fill:#e21a22;fill-rule:evenodd;stroke:none" />
      <path
         d="m 327.01279,489.6282 30.66107,0 0,1.14678 -30.66107,0 0,-1.14678 z"
         id="path328"
         style="fill:#e21a22;fill-rule:evenodd;stroke:none" />
      <path
         d="m 326.9734,485.3037 30.66544,0 0,1.14678 -30.66544,0 0,-1.14678 z"
         id="path330"
         style="fill:#e21a22;fill-rule:evenodd;stroke:none" />
      <path
         d="m 347.18651,493.26113 c -1.54072,1.40065 -1.53196,3.92182 -1.53196,3.92182 l -3.30904,0 -3.30027,0 c 0,0 0.009,-2.52117 -1.53196,-3.92182 -1.0715,-0.98045 -2.38286,-1.19055 -2.38286,-1.19055 -0.85877,-0.16632 -0.85964,-0.27137 -0.85964,-0.3239 l 16.14597,0 c 0,0 0,0.14882 -0.8579,0.3239 0,0 -1.30435,0.2101 -2.37234,1.19055"
         id="path332"
         style="fill:#e21a22;fill-rule:evenodd;stroke:none" />
      <path
         d="m 328.62003,491.74668 c 0.3239,0 2.87221,0 3.32742,0 0,1.96966 -1.27547,2.85382 -3.32742,2.41612 0,-1.26058 0,-1.77707 0,-2.41612"
         id="path334"
         style="fill:#e21a22;fill-rule:evenodd;stroke:none" />
      <path
         d="m 340.41087,459.96072 c 1.33061,-2.62622 1.58448,-6.56554 1.91714,-6.63558 0.33265,0.07 0.58652,4.00936 1.91713,6.62682 1.25183,2.4774 3.93933,4.56962 3.78175,4.81473 -0.18383,0.30639 -1.67202,-0.46396 -2.42487,-0.80537 -1.1993,-0.56902 -2.171,-0.99796 -2.171,-0.99796 0,0 -0.48148,6.27665 1.05048,12.05433 1.25183,4.73594 4.24572,9.05169 4.51709,9.42811 l -3.81676,0 c -0.12256,-0.20134 -0.24512,-0.39393 -0.35017,-0.59527 -1.04173,-1.8296 -1.78582,-3.41408 -2.50365,-6.14535 -0.72659,2.73127 -1.45318,4.31575 -2.49491,6.14535 -0.1138,0.20134 -0.2276,0.39393 -0.35016,0.59527 l -3.8229,0 c 0.27225,-0.37642 3.27139,-4.69217 4.52322,-9.42811 1.52321,-5.76892 1.05049,-12.05433 1.05049,-12.05433 0,0 -0.98045,0.4377 -2.17976,0.99796 -0.74409,0.35016 -2.23228,1.11176 -2.42487,0.80537 -0.14882,-0.24511 2.53867,-2.33733 3.78175,-4.80597"
         id="path336"
         style="fill:#e21a22;fill-rule:evenodd;stroke:none" />
      <path
         d="m 328.48697,484.4458 c -0.0149,-0.46396 -0.25474,-6.81941 -1.74556,-11.80922 -1.63263,-5.47128 -4.91452,-8.72779 -4.69392,-9.05169 0.20134,-0.30639 2.91685,0.24512 4.95304,1.64577 2.17276,1.49694 4.30437,3.96558 4.14767,4.14942 -0.0963,0.1138 -0.82988,-0.49898 -2.15174,-0.98921 -1.40678,-0.52524 -2.02219,-0.42895 -2.02219,-0.42895 0,0 2.33296,3.86054 3.48937,8.04497 0.96907,3.51038 1.4733,8.04498 1.49957,8.43891 l -3.47624,0"
         id="path338"
         style="fill:#e21a22;fill-rule:evenodd;stroke:none" />
      <path
         d="m 356.21193,484.4458 c 0.0175,-0.46396 0.25387,-6.81941 1.75081,-11.80922 1.62826,-5.47128 4.91103,-8.72779 4.69218,-9.05169 -0.20135,-0.30639 -2.9151,0.24512 -4.9548,1.64577 -2.171,1.49694 -4.30699,3.96558 -4.14942,4.14942 0.0963,0.1138 0.83164,-0.49898 2.1535,-0.98921 1.4094,-0.52524 2.02218,-0.42895 2.02218,-0.42895 0,0 -2.33733,3.86054 -3.49286,8.04497 -0.96295,3.51038 -1.47068,8.04498 -1.49695,8.43891 l 3.47536,0"
         id="path340"
         style="fill:#e21a22;fill-rule:evenodd;stroke:none" />
      <path
         d="m 356.08062,491.74668 c -0.3239,0 -2.87133,0 -3.32654,0 0,1.96966 1.27809,2.85382 3.32654,2.41612 0,-1.26058 0,-1.77707 0,-2.41612"
         id="path342"
         style="fill:#e21a22;fill-rule:evenodd;stroke:none" />
      <path
         d="m 342.14417,444.34349 c 17.91955,0 32.20616,22.31408 32.20616,49.45164 0,27.13756 -14.28661,49.44289 -32.20616,49.44289 -17.92918,0 -32.20879,-22.30533 -32.20879,-49.44289 0,-27.13756 14.27961,-49.45164 32.20879,-49.45164 z m 0,0.79661 c -17.21397,0 -31.41742,21.60501 -31.41742,48.65503 0,27.04127 14.20345,48.65503 31.41742,48.65503 17.21047,0 31.40954,-21.61376 31.40954,-48.65503 0,-27.05002 -14.19907,-48.65503 -31.40954,-48.65503"
         id="path344"
         style="fill:#09264a;fill-rule:nonzero;stroke:none" />
      <path
         d="m 313.76441,503.88855 56.75165,0 c 0,0 -1.12052,15.12701 -9.77828,26.19213 -6.14535,7.86114 -13.7176,10.37355 -18.53233,10.37355 -5.34873,0 -12.34234,-2.33733 -18.54371,-10.41732 -8.56147,-11.14391 -9.89733,-26.14836 -9.89733,-26.14836"
         id="path346"
         style="fill:#0c2e59;fill-rule:nonzero;stroke:none" />
      <path
         d="m 323.66261,508.76456 -2.07996,5.31371 -0.34228,0 -2.01343,-5.30495 -0.21973,4.09689 c -0.0123,0.07 -0.0254,0.27138 -0.0254,0.42895 0,0.35892 0.47622,0.37642 0.73272,0.37642 l 0.0683,0 0,0.40269 -2.34171,0 0,-0.39393 c 0.18996,-0.009 0.71783,-0.009 0.87803,-0.20134 0.11555,-0.14882 0.14006,-0.41144 0.18734,-0.98921 l 0.19259,-3.86054 c 0.0271,-0.3239 -0.003,-0.44646 -0.0884,-0.50773 -0.13481,-0.10505 -0.56464,-0.11381 -0.71258,-0.12256 l 0,-0.39393 1.99155,0 1.80508,4.70092 1.84448,-4.70092 1.96441,0 0,0.39393 -0.0674,0 c -0.41757,0 -0.59616,0.009 -0.68195,0.10505 -0.0867,0.0963 -0.098,0.29763 -0.0639,0.80537 l 0.20922,3.73798 c 0.0131,0.21885 0.021,0.66531 0.1497,0.84914 0.15494,0.22761 0.56463,0.18384 0.78261,0.17508 l 0,0.40269 -2.8652,0 0,-0.39393 c 0.20747,-0.0175 0.51736,-0.0263 0.70732,-0.1138 0.14094,-0.0613 0.22498,-0.16633 0.22498,-0.37643 0,-0.0963 -0.0131,-0.37642 -0.0263,-0.47272 l -0.2101,-3.95683"
         id="path348"
         style="fill:#ffffff;fill-rule:nonzero;stroke:none" />
      <path
         d="m 336.72541,507.58276 0.33266,0 0.14006,1.59324 -0.36767,0 c -0.20134,-0.59527 -0.58389,-1.33061 -1.34462,-1.33061 -0.49898,0 -1.00322,0.42019 -1.00322,0.86665 0,0.28013 0.0744,0.47272 0.31427,0.70908 0.36067,0.36767 0.92181,0.73534 1.33937,1.04173 0.66794,0.49022 1.18443,1.04173 1.18443,1.96091 0,0.99796 -0.88154,1.87336 -1.99243,1.87336 -0.40443,0 -0.77035,-0.14006 -1.1529,-0.25386 l -0.0753,-0.0263 -0.0718,0 c -0.11293,0 -0.0989,0.0438 -0.11293,0.13131 l -0.32915,0 -0.18471,-1.70704 0.38693,0 c 0.19084,0.59528 0.68369,1.40941 1.43391,1.40941 0.36154,0 1.20106,-0.25387 1.20106,-1.05049 0,-0.36767 -0.12344,-0.63029 -0.36067,-0.89291 -0.24249,-0.25387 -0.59965,-0.50774 -1.06712,-0.82288 -1.18092,-0.81413 -1.4094,-1.40941 -1.4094,-1.99593 0,-0.9717 0.96557,-1.68078 1.76832,-1.68078 0.30989,0 0.60928,0.0613 0.8649,0.14882 l 0.20484,0.0963 0.11731,0.0438 0.0438,0.0175 c 0.0613,0 0.10505,-0.0875 0.14006,-0.13131"
         id="path350"
         style="fill:#ffffff;fill-rule:nonzero;stroke:none" />
      <path
         d="m 329.3046,508.47568 -0.84039,2.39861 1.61688,0 -0.77649,-2.39861 z m -0.26787,-0.59528 -0.1532,-0.48147 1.08725,0 1.81647,5.47128 c 0.21535,0.63029 0.19347,0.7616 0.95069,0.81413 l 0,0.39393 -2.88271,0 0,-0.39393 c 0.19872,-0.009 0.46659,-0.009 0.65393,-0.07 0.14357,-0.0525 0.22673,-0.13131 0.22673,-0.3064 0,-0.19258 -0.0875,-0.49898 -0.17946,-0.77911 l -0.3808,-1.19055 -1.80859,0 c -0.19084,0.54275 -0.48847,1.26934 -0.51999,1.85586 -0.0201,0.35892 0.21885,0.41144 0.49811,0.44646 l 0.35016,0.035 0.0587,0.40269 -2.39511,0 0,-0.38518 c 0.50073,-0.1138 0.66794,-0.21885 0.85352,-0.67406 0.0578,-0.14006 0.11643,-0.31515 0.18909,-0.51649 l 1.63526,-4.62214"
         id="path352"
         style="fill:#ffffff;fill-rule:nonzero;stroke:none" />
      <path
         d="m 341.88155,508.08174 -1.35688,0 0,2.46865 1.19931,0 c 0.25386,0 0.37642,0 0.46396,-0.0788 0.14007,-0.13131 0.15757,-0.5515 0.16633,-0.70908 l 0.38518,0 0,2.10098 -0.38518,0 c -0.0263,-0.72659 0.009,-0.84039 -0.71783,-0.84039 l -1.11177,0 0,2.02218 c 0,0.33266 0.009,0.44646 0.0613,0.49898 0.07,0.0788 0.36767,0.0613 0.45521,0.0613 l 0.99796,0 c 0.81413,0 0.91918,-0.42895 1.09426,-1.20806 l 0.37642,0 -0.14882,1.68078 -4.84974,0 0,-0.40269 c 0.75285,0.035 0.92793,-0.0438 0.92793,-0.77035 l 0,-4.12316 c 0,-0.7616 -0.22761,-0.78787 -0.92793,-0.77036 l 0,-0.40268 4.62214,0 0.0525,1.5232 -0.35891,0 c -0.13131,-0.78786 -0.15758,-1.05049 -0.94544,-1.05049"
         id="path354"
         style="fill:#ffffff;fill-rule:nonzero;stroke:none" />
      <path
         d="m 357.33245,509.15849 -0.34141,0 0.12256,-1.75081 0.28888,0 c 0.0438,0.0875 0.07,0.14007 0.16633,0.17508 0.035,0.0175 0.0788,0.0263 0.14882,0.0263 l 0.23636,0 3.63293,0 c 0.21885,0 0.33266,-0.009 0.39393,-0.035 0.07,-0.0263 0.0876,-0.0963 0.11381,-0.16633 l 0.28888,0 0.14882,1.75081 -0.36767,0 c -0.0438,-0.21885 -0.14007,-0.75285 -0.33265,-0.95419 -0.12256,-0.1138 -0.26263,-0.12256 -0.51649,-0.12256 l -1.02423,0 0,4.7447 c 0,0.4377 0.035,0.61279 0.15758,0.70908 0.17508,0.13131 0.74409,0.14006 0.91917,0.14882 l 0,0.39393 -3.23024,0 0,-0.39393 c 0.16632,-0.009 0.7616,-0.0175 0.92793,-0.14007 0.1138,-0.0875 0.14881,-0.24511 0.14881,-0.65655 l 0,-4.80598 -0.91042,0 c -0.36767,0 -0.62154,-0.0263 -0.75285,0.34141 -0.0875,0.23636 -0.14882,0.49023 -0.21885,0.73534"
         id="path356"
         style="fill:#ffffff;fill-rule:nonzero;stroke:none" />
      <path
         d="m 363.51281,507.60903 3.02891,0 0,0.39393 c -1.04174,0.0525 -0.9717,0.21885 -0.9717,1.21681 l 0,3.53664 c 0.0613,0.84039 0.19259,0.86665 1.00671,0.92793 l 0,0.39393 -3.02015,0 0,-0.39393 c 0.2101,-0.0175 0.44646,-0.0175 0.6478,-0.0788 0.0875,-0.0263 0.10505,-0.0525 0.14882,-0.12255 0.12256,-0.24512 0.13131,-0.73534 0.13131,-1.33937 l 0,-3.21274 c 0,-0.82288 -0.17508,-0.86665 -0.9717,-0.92793 l 0,-0.39393"
         id="path358"
         style="fill:#ffffff;fill-rule:nonzero;stroke:none" />
      <path
         d="m 346.85385,510.83052 0.68282,0 c 0.26262,-0.009 0.50773,-0.009 0.74409,-0.15758 0.25387,-0.15757 0.48147,-0.50773 0.48147,-1.28684 0,-1.19055 -0.69157,-1.3919 -1.24307,-1.3919 -0.2101,-0.009 -0.49898,0.009 -0.66531,0.009 l 0,2.82756 z m 6.6881,-2.35484 -0.84039,2.39861 1.6195,0 -0.77911,-2.39861 z m 0.66531,-1.07675 1.82084,5.47128 c 0.2101,0.63029 0.19259,0.7616 0.94544,0.81413 l 0,0.39393 -2.88009,0 0,-0.39393 c 0.26262,-0.009 0.88416,0.035 0.88416,-0.37643 0,-0.19258 -0.0963,-0.49898 -0.18383,-0.77911 l -0.37643,-1.19055 -1.81209,0 c -0.21009,0.58652 -0.46396,1.22557 -0.51649,1.86462 -0.0438,0.50773 0.56026,0.47271 0.90167,0.48147 l 0,0.39393 -2.31982,0 c -0.91042,0.035 -1.63701,-0.21885 -2.20602,-1.1993 -0.14007,-0.24512 -0.66531,-1.2956 -0.83164,-1.58449 l -0.77035,0 0.009,1.38314 c 0,0.86665 0.0788,0.99796 0.59527,0.99796 l 0.46397,0 0,0.40269 -3.14271,0 0,-0.40269 c 0.77912,0.035 0.9717,-0.0525 0.9717,-0.80537 l 0,-4.27198 c 0,-0.41144 0.0175,-0.57776 -0.39393,-0.61278 -0.19259,-0.009 -0.38518,-0.009 -0.57777,-0.009 l 0,-0.39394 c 0.81413,-0.0175 1.64577,-0.009 2.45114,-0.009 0.49898,0 0.9717,-0.0263 1.46193,0.12256 0.57776,0.18383 1.11176,0.62153 1.11176,1.59323 0,1.17305 -0.66531,1.54947 -1.12927,1.75081 0.21885,0.21886 0.34141,0.40269 0.77911,1.43567 0.44646,1.02422 0.63029,1.17304 1.15553,1.25183 0.60403,-0.0263 0.72659,-0.38518 1.02423,-1.22557 l 1.63701,-4.62214 -0.15758,-0.48147 1.08551,0"
         id="path360"
         style="fill:#ffffff;fill-rule:nonzero;stroke:none" />
    </g>
  </g>
</svg>
